<svg width="85" height="73" viewBox="0 0 85 73" fill="none" xmlns="http://www.w3.org/2000/svg">
<path d="M50.5589 9.65211V27.8157H60.4707V9.65211H50.5589ZM54.8364 7.24414V36.3785H56.2036V7.24414H54.8364ZM41.8279 28.6772V54.21H43.2054V28.6772H41.8279ZM24.5625 45.6368V63.8004H34.4743V45.6368H24.5625ZM37.5607 27.8157V45.6368H47.4725V27.8157H37.5607Z" fill="#70E650"/>
<path d="M84.9452 0.362793V28.8744H76.8977V8.42743H66.2402V0.362793H84.9452Z" fill="#E9FDDE"/>
<path d="M76.8977 44.0073H84.9452V72.5294H66.2402V64.4647H76.8977V44.0073Z" fill="#E9FDDE"/>
<path d="M19.0214 0.321289V8.39631H8.36391V28.8745H0.316406V0.321289H19.0214Z" fill="#E9FDDE"/>
<path d="M8.36391 64.4336H19.0214V72.4982H0.316406V44.0073H8.36391V64.4336Z" fill="#E9FDDE"/>
</svg>
