<svg width="20" height="20" viewBox="0 0 20 20" fill="none" xmlns="http://www.w3.org/2000/svg">
<path d="M5.5251 13.0063C9.0047 14.2434 11.9658 14.4843 15.3214 12.5588C15.2969 12.5924 14.6331 13.4883 12.8876 13.9474C13.2563 14.4065 13.7603 14.9328 13.7603 14.9328C14.8789 14.9328 15.973 14.6417 16.9194 14.0817C17.657 13.6338 18.0749 12.8611 17.9889 12.0549C17.8414 10.6775 17.4849 9.33371 16.9317 8.04594C16.2311 6.36622 14.547 5.2016 12.5925 5.03361C12.4204 5.02241 12.2975 5.02241 12.2238 5.02241L12.0271 5.20156C14.2766 5.78388 15.3952 6.69092 15.4198 6.72453C11.9656 5.13437 7.88459 5.112 4.40582 6.65735C4.40582 6.65735 5.51214 5.6607 7.9583 5.13437L7.8108 5C7.55265 5 7.30679 5.02241 7.04868 5.05598C5.24169 5.33594 3.72975 6.46696 3.07825 8.0235C2.51279 9.36729 2.14403 10.7783 2.00882 12.2116C1.93507 12.9731 2.32843 13.7234 3.01679 14.1601C3.92642 14.7088 5.00814 15 6.10216 15C6.10216 15 6.54467 14.4737 6.98723 14.0034C5.32774 13.5554 4.65168 12.6596 4.63938 12.626L4.95168 12.7712C5.13838 12.8581 5.32979 12.9369 5.5251 13.0063ZM7.45433 12.0325C6.65532 12.0101 6.02841 11.3942 6.05301 10.6551C6.0776 9.9608 6.69222 9.4009 7.45433 9.37849C8.25335 9.4009 8.88026 10.0168 8.85566 10.7559C8.81877 11.4502 8.21645 12.0101 7.45433 12.0325ZM12.4696 12.0325C11.6706 12.0101 11.0437 11.3942 11.0683 10.6551C11.0929 9.9608 11.7075 9.4009 12.4696 9.37849C13.2686 9.4009 13.8955 10.0168 13.8709 10.7559C13.8464 11.4502 13.2317 12.0101 12.4696 12.0325Z" fill="#CBCBCB"/>
</svg>
