<svg width="40" height="40" viewBox="0 0 40 40" fill="none" xmlns="http://www.w3.org/2000/svg">
<path d="M21.5588 32.5823C23.3998 32.5823 24.941 31.0556 24.3822 29.3016C24.2902 29.0126 24.1859 28.7272 24.0694 28.4461C23.5263 27.1348 22.7301 25.9433 21.7265 24.9396C20.7228 23.936 19.5313 23.1398 18.22 22.5967C16.9086 22.0535 15.5032 21.7739 14.0838 21.7739C12.6644 21.7739 11.2589 22.0535 9.94759 22.5967C8.63625 23.1398 7.44475 23.936 6.44109 24.9396C5.43744 25.9433 4.6413 27.1348 4.09813 28.4461C3.9817 28.7272 3.87739 29.0126 3.78534 29.3016C3.22654 31.0556 4.76777 32.5823 6.60872 32.5823H14.0838H21.5588Z" fill="white" fill-opacity="0.5"/>
<circle cx="14.8025" cy="13.8507" r="4.32336" fill="white" fill-opacity="0.5"/>
<circle cx="26.3911" cy="10.9659" r="4.32336" fill="white"/>
<path fill-rule="evenodd" clip-rule="evenodd" d="M36.2188 25.7024C36.7776 27.4565 35.2364 28.9832 33.3954 28.9832H27.2164C27.1604 28.8253 27.1017 28.6684 27.0403 28.5125C26.3523 26.764 25.3438 25.1753 24.0725 23.8371C22.8013 22.4989 21.292 21.4374 19.631 20.7132C19.4837 20.649 19.3355 20.5875 19.1865 20.5289C19.975 19.9008 20.8491 19.3849 21.7842 18.9975C23.0955 18.4544 24.501 18.1748 25.9204 18.1748C27.3398 18.1748 28.7452 18.4544 30.0566 18.9975C31.3679 19.5407 32.5594 20.3369 33.5631 21.3405C34.5667 22.3442 35.3629 23.5357 35.906 24.847C36.0225 25.1281 36.1268 25.4135 36.2188 25.7024Z" fill="white"/>
</svg>
