<svg width="40" height="40" viewBox="0 0 40 40" fill="none" xmlns="http://www.w3.org/2000/svg">
<path d="M35.0003 6.6665H36.6667V8.33154V8.3348V18.3332C36.6667 19.2536 35.9205 19.9998 35 19.9998C34.0795 19.9998 33.3333 19.2536 33.3333 18.3332V12.3569L20 25.6902L16.6667 22.3569L11.1785 27.845C10.5276 28.4959 9.47236 28.4959 8.82148 27.845C8.17061 27.1941 8.17061 26.1389 8.82148 25.488L16.6667 17.6428L20 20.9761L30.9763 9.99984H25C24.0795 9.99984 23.3333 9.25364 23.3333 8.33317C23.3333 7.4127 24.0795 6.6665 25 6.6665H35.0003Z" fill="white"/>
<path d="M8.33398 30.8335C8.33398 32.2142 7.2147 33.3335 5.83398 33.3335C4.45327 33.3335 3.33398 32.2142 3.33398 30.8335C3.33398 29.4528 4.45327 28.3335 5.83398 28.3335C7.2147 28.3335 8.33398 29.4528 8.33398 30.8335Z" fill="white" fill-opacity="0.5"/>
</svg>
