<svg width="40" height="40" viewBox="0 0 40 40" fill="none" xmlns="http://www.w3.org/2000/svg">
<path d="M30.6469 10.4568C31.3007 10.6405 31.7423 10.7649 32.0722 10.8722C32.4085 10.9816 32.5176 11.0393 32.5455 11.0563C32.9771 11.3203 33.2192 11.6706 33.3141 12.1592C33.3478 12.3324 33.3454 12.5332 33.2562 13.5708C32.1067 26.9514 25.7158 32.9816 20 34.6084C14.2842 32.9816 7.89333 26.9514 6.74376 13.5708C6.65462 12.5332 6.65219 12.3324 6.68586 12.1592C6.78084 11.6706 7.02291 11.3203 7.45451 11.0563C7.48238 11.0393 7.59151 10.9816 7.92782 10.8722C8.25768 10.7649 8.69927 10.6405 9.35314 10.4568C12.7284 9.5086 14.8811 7.8752 16.5151 6.59615C18.2649 5.22651 19.0275 4.66667 20 4.66667C20.9725 4.66667 21.7351 5.22651 23.4849 6.59615C25.1189 7.8752 27.2716 9.5086 30.6469 10.4568Z" stroke="white" stroke-opacity="0.5" stroke-width="3.33333"/>
<path d="M15 20L18.2715 24.3619C18.5019 24.6693 18.9691 24.6494 19.1727 24.3237L25 15" stroke="white" stroke-width="2.5" stroke-linecap="round"/>
</svg>
