<svg width="38" height="38" viewBox="0 0 38 38" fill="none" xmlns="http://www.w3.org/2000/svg">
<path d="M10.5879 36.255H2.82323C2.28401 36.255 1.7448 35.7158 1.7448 35.1766V27.304C1.7448 26.657 2.28401 26.2256 2.82323 26.2256H10.3722V35.1766C10.3722 35.5001 10.4801 35.9315 10.5879 36.255ZM25.4703 22.2354V35.1766C25.4703 35.7158 24.9311 36.255 24.3919 36.255H13.6075C13.0683 36.255 12.5291 35.7158 12.5291 35.1766V22.2354C12.5291 21.5884 13.0683 21.157 13.6075 21.157H24.3919C24.9311 21.157 25.4703 21.5884 25.4703 22.2354ZM36.2546 28.706V35.1766C36.2546 35.7158 35.7154 36.255 35.1762 36.255H27.4115C27.5193 35.9315 27.6271 35.5001 27.6271 35.1766V27.6276H35.1762C35.7154 27.6276 36.2546 28.0589 36.2546 28.706Z" fill="white" fill-opacity="0.5"/>
<path d="M23.0298 12.6732L25.7998 10.2718C25.9677 10.1217 26.0517 9.82156 25.9677 9.52138C25.8838 9.22121 25.632 9.07112 25.2962 8.99608L21.4349 8.47077L19.7561 5.39398C19.5043 4.86867 18.497 4.86867 18.2452 5.39398L16.5664 8.47077L12.7051 8.99608C12.3693 9.07112 12.1175 9.22121 12.0336 9.52138C11.9496 9.82156 12.0336 10.1217 12.2015 10.2718L15.0554 12.5982L14.3839 16.0502C14.3 16.3504 14.4679 16.6505 14.7197 16.8006C14.9715 17.0258 15.3073 17.0258 15.5591 16.8757L19.0007 15.2997L22.4422 16.9507C22.694 17.0258 23.1137 17.0258 23.3656 16.8757C23.6174 16.7256 23.7853 16.4254 23.7013 16.1252L23.0298 12.6732Z" fill="white"/>
</svg>
