<svg width="24" height="25" viewBox="0 0 24 25" fill="none" xmlns="http://www.w3.org/2000/svg">
<g clip-path="url(#clip0_515_8781)">
<path d="M11.5 4.5C10.5717 4.5 9.6815 4.86875 9.02513 5.52513C8.36875 6.1815 8 7.07174 8 8C8 8.92826 8.36875 9.8185 9.02513 10.4749C9.6815 11.1313 10.5717 11.5 11.5 11.5C12.4283 11.5 13.3185 11.1313 13.9749 10.4749C14.6313 9.8185 15 8.92826 15 8C15 7.07174 14.6313 6.1815 13.9749 5.52513C13.3185 4.86875 12.4283 4.5 11.5 4.5ZM6 8C6 6.54131 6.57946 5.14236 7.61091 4.11091C8.64236 3.07946 10.0413 2.5 11.5 2.5C12.9587 2.5 14.3576 3.07946 15.3891 4.11091C16.4205 5.14236 17 6.54131 17 8C17 9.45869 16.4205 10.8576 15.3891 11.8891C14.3576 12.9205 12.9587 13.5 11.5 13.5C10.0413 13.5 8.64236 12.9205 7.61091 11.8891C6.57946 10.8576 6 9.45869 6 8ZM18 13.094L22.914 17.952L21.508 19.374L19 16.894V24.004H17V16.894L14.492 19.374L13.086 17.952L18 13.094ZM8 16.5C6.93913 16.5 5.92172 16.9214 5.17157 17.6716C4.42143 18.4217 4 19.4391 4 20.5H12.8V22.5H2V20.5C2 18.9087 2.63214 17.3826 3.75736 16.2574C4.88258 15.1321 6.4087 14.5 8 14.5H12.75V16.5H8Z" fill="#B9F890"/>
</g>
<defs>
<clipPath id="clip0_515_8781">
<rect width="24" height="24" fill="white" transform="translate(0 0.5)"/>
</clipPath>
</defs>
</svg>
