<svg width="24" height="25" viewBox="0 0 24 25" fill="none" xmlns="http://www.w3.org/2000/svg">
<path d="M4 2.5V20.5H22V22.5H2V2.5H4ZM19.5 7.5C19.3674 7.5 19.2402 7.55268 19.1464 7.64645C19.0527 7.74021 19 7.86739 19 8C19 8.13261 19.0527 8.25979 19.1464 8.35355C19.2402 8.44732 19.3674 8.5 19.5 8.5C19.6326 8.5 19.7598 8.44732 19.8536 8.35355C19.9473 8.25979 20 8.13261 20 8C20 7.86739 19.9473 7.74021 19.8536 7.64645C19.7598 7.55268 19.6326 7.5 19.5 7.5ZM17 8C17.0002 7.43824 17.1895 6.89292 17.5376 6.45195C17.8856 6.01099 18.372 5.70008 18.9183 5.56938C19.4646 5.43867 20.0391 5.49577 20.549 5.73148C21.0589 5.9672 21.4746 6.36777 21.729 6.86863C21.9834 7.36948 22.0616 7.94141 21.9512 8.49221C21.8408 9.043 21.5481 9.54055 21.1203 9.90463C20.6925 10.2687 20.1545 10.4781 19.5931 10.499C19.0318 10.52 18.4797 10.3512 18.026 10.02L9.985 14.716C10.0503 15.2866 9.91714 15.8624 9.60788 16.3464C9.29862 16.8304 8.83214 17.1931 8.28688 17.3736C7.74161 17.5541 7.15083 17.5414 6.61386 17.3375C6.07689 17.1336 5.6265 16.7511 5.33842 16.2542C5.05034 15.7573 4.94214 15.1764 5.03201 14.6091C5.12189 14.0418 5.40435 13.5227 5.83192 13.1392C6.25948 12.7557 6.80606 12.5311 7.37975 12.5032C7.95343 12.4753 8.51923 12.6458 8.982 12.986L17.017 8.293C17.0057 8.19574 17 8.09791 17 8ZM7.933 14.75C7.90041 14.6927 7.8568 14.6424 7.80469 14.602C7.75257 14.5616 7.69298 14.5319 7.62935 14.5146C7.56571 14.4973 7.49928 14.4928 7.43389 14.5013C7.3685 14.5098 7.30544 14.5311 7.24834 14.5641C7.19123 14.5971 7.14121 14.641 7.10116 14.6934C7.0611 14.7458 7.03181 14.8056 7.01495 14.8693C6.9981 14.9331 6.99402 14.9995 7.00295 15.0649C7.01188 15.1302 7.03365 15.1931 7.067 15.25C7.13378 15.3639 7.24289 15.4468 7.37054 15.4805C7.49819 15.5143 7.634 15.4962 7.74835 15.4301C7.86269 15.3641 7.94628 15.2556 7.98087 15.1281C8.01547 15.0007 7.99826 14.8648 7.933 14.75Z" fill="#B9F890"/>
</svg>
