<svg width="24" height="25" viewBox="0 0 24 25" fill="none" xmlns="http://www.w3.org/2000/svg">
<path d="M2 2.5H22V22.5H2V2.5ZM19.5 20.5H20V4.5H4V20.5H4.5C4.5 19.1739 5.02678 17.9021 5.96447 16.9645C6.90215 16.0268 8.17392 15.5 9.5 15.5H14.5C15.8261 15.5 17.0979 16.0268 18.0355 16.9645C18.9732 17.9021 19.5 19.1739 19.5 20.5ZM12 7.5C11.337 7.5 10.7011 7.76339 10.2322 8.23223C9.76339 8.70107 9.5 9.33696 9.5 10C9.5 10.663 9.76339 11.2989 10.2322 11.7678C10.7011 12.2366 11.337 12.5 12 12.5C12.663 12.5 13.2989 12.2366 13.7678 11.7678C14.2366 11.2989 14.5 10.663 14.5 10C14.5 9.33696 14.2366 8.70107 13.7678 8.23223C13.2989 7.76339 12.663 7.5 12 7.5ZM7.5 10C7.5 8.80653 7.97411 7.66193 8.81802 6.81802C9.66193 5.97411 10.8065 5.5 12 5.5C13.1935 5.5 14.3381 5.97411 15.182 6.81802C16.0259 7.66193 16.5 8.80653 16.5 10C16.5 11.1935 16.0259 12.3381 15.182 13.182C14.3381 14.0259 13.1935 14.5 12 14.5C10.8065 14.5 9.66193 14.0259 8.81802 13.182C7.97411 12.3381 7.5 11.1935 7.5 10ZM9.5 17.5C8.70435 17.5 7.94129 17.8161 7.37868 18.3787C6.81607 18.9413 6.5 19.7044 6.5 20.5H17.5C17.5 19.7044 17.1839 18.9413 16.6213 18.3787C16.0587 17.8161 15.2956 17.5 14.5 17.5H9.5Z" fill="#F7F7F7"/>
</svg>
